ffmpeg version 4.1.1-static https://johnvansickle.com/ffmpeg/  Copyright (c) 2000-2019 the FFmpeg developers
  built with gcc 6.3.0 (Debian 6.3.0-18+deb9u1) 20170516
  configuration: --enable-gpl --enable-version3 --enable-static --disable-debug --disable-ffplay --disable-indev=sndio --disable-outdev=sndio --cc=gcc-6 --enable-fontconfig --enable-frei0r --enable-gnutls --enable-gmp --enable-gray --enable-libaom --enable-libfribidi --enable-libass --enable-libvmaf --enable-libfreetype --enable-libmp3lame --enable-libopencore-amrnb --enable-libopencore-amrwb --enable-libopenjpeg --enable-librubberband --enable-libsoxr --enable-libspeex --enable-libvorbis --enable-libopus --enable-libtheora --enable-libvidstab --enable-libvo-amrwbenc --enable-libvpx --enable-libwebp --enable-libx264 --enable-libx265 --enable-libxml2 --enable-libxvid --enable-libzvbi --enable-libzimg
  libavutil      56. 22.100 / 56. 22.100
  libavcodec     58. 35.100 / 58. 35.100
  libavformat    58. 20.100 / 58. 20.100
  libavdevice    58.  5.100 / 58.  5.100
  libavfilter     7. 40.101 /  7. 40.101
  libswscale      5.  3.100 /  5.  3.100
  libswresample   3.  3.100 /  3.  3.100
  libpostproc    55.  3.100 / 55.  3.100
Input #0, mov,mp4,m4a,3gp,3g2,mj2, from 'input.mp4':
  Metadata:
    major_brand     : mp42
    minor_version   : 0
    compatible_brands: isommp42
    creation_time   : 2018-11-06T11:08:01.000000Z
  Duration: 00:47:54.05, start: 0.000000, bitrate: 1969 kb/s
    Stream #0:0(und): Video: h264 (Main) (avc1 / 0x31637661), yuv420p(tv, bt709), 1280x720 [SAR 1:1 DAR 16:9], 1838 kb/s, 29.97 fps, 29.97 tbr, 30k tbn, 59.94 tbc (default)
    Metadata:
      creation_time   : 2018-11-06T11:08:01.000000Z
      handler_name    : ISO Media file produced by Google Inc. Created on: 11/06/2018.
    Stream #0:1(und): Audio: aac (LC) (mp4a / 0x6134706D), 44100 Hz, stereo, fltp, 128 kb/s (default)
    Metadata:
      creation_time   : 2018-11-06T11:08:01.000000Z
      handler_name    : ISO Media file produced by Google Inc. Created on: 11/06/2018.
Stream mapping:
  Stream #0:0 (h264) -> setpts (graph 0)
  setpts (graph 0) -> Stream #0:0 (libx264)
  Stream #0:1 -> #0:1 (aac (native) -> mp3 (libmp3lame))
Press [q] to stop, [?] for help
[libx264 @ 0x5f85cc0] using SAR=1/1
[libx264 @ 0x5f85cc0] using cpu capabilities: MMX2 SSE2Fast SSSE3 SSE4.2 AVX FMA3 BMI2 AVX2
[libx264 @ 0x5f85cc0] profile High, level 3.1, 4:2:0, 8-bit
[libx264 @ 0x5f85cc0] 264 - core 157 r2935 545de2f - H.264/MPEG-4 AVC codec - Copyleft 2003-2018 - http://www.videolan.org/x264.html - options: cabac=1 ref=1 deblock=1:0:0 analyse=0x3:0x3 me=dia subme=1 psy=1 psy_rd=1.00:0.00 mixed_ref=0 me_range=16 chroma_me=1 trellis=0 8x8dct=1 cqm=0 deadzone=21,11 fast_pskip=1 chroma_qp_offset=0 threads=1 lookahead_threads=1 sliced_threads=0 nr=0 decimate=1 interlaced=0 bluray_compat=0 constrained_intra=0 bframes=3 b_pyramid=2 b_adapt=1 b_bias=0 direct=1 weightb=1 open_gop=0 weightp=1 keyint=250 keyint_min=25 scenecut=40 intra_refresh=0 rc_lookahead=0 rc=cbr mbtree=0 bitrate=1000 ratetol=1.0 qcomp=0.60 qpmin=0 qpmax=69 qpstep=4 vbv_maxrate=1000 vbv_bufsize=2500 nal_hrd=none filler=0 ip_ratio=1.40 pb_ratio=1.30 aq=1:1.00
Output #0, flv, to 'rtmp://a.rtmp.youtube.com/live2/ggx1-9dra-6a4k-4bu4':
  Metadata:
    major_brand     : mp42
    minor_version   : 0
    compatible_brands: isommp42
    encoder         : Lavf58.20.100
    Stream #0:0: Video: h264 (libx264) ([7][0][0][0] / 0x0007), yuv420p(progressive), 1280x720 [SAR 1:1 DAR 16:9], q=-1--1, 1000 kb/s, 29.97 fps, 1k tbn, 29.97 tbc (default)
    Metadata:
      encoder         : Lavc58.35.100 libx264
    Side data:
      cpb: bitrate max/min/avg: 1000000/0/1000000 buffer size: 2500000 vbv_delay: -1
    Stream #0:1(und): Audio: mp3 (libmp3lame) ([2][0][0][0] / 0x0002), 44100 Hz, stereo, fltp, 128 kb/s (default)
    Metadata:
      creation_time   : 2018-11-06T11:08:01.000000Z
      handler_name    : ISO Media file produced by Google Inc. Created on: 11/06/2018.
      encoder         : Lavc58.35.100 libmp3lame
frame=   15 fps=0.0 q=26.0 size=      52kB time=00:00:00.36 bitrate=1162.5kbits/s speed=0.729x    frame=   31 fps= 30 q=30.0 size=     150kB time=00:00:00.86 bitrate=1428.6kbits/s speed=0.837x    frame=   47 fps= 30 q=28.0 size=     210kB time=00:00:01.35 bitrate=1264.4kbits/s speed=0.881x    frame=   61 fps= 30 q=26.0 size=     256kB time=00:00:01.83 bitrate=1147.7kbits/s speed=0.895x    frame=   77 fps= 30 q=23.0 size=     303kB time=00:00:02.33 bitrate=1063.4kbits/s speed=0.915x    frame=   92 fps= 30 q=24.0 size=     361kB time=00:00:02.83 bitrate=1043.5kbits/s speed=0.927x    frame=  107 fps= 30 q=26.0 size=     508kB time=00:00:03.33 bitrate=1246.0kbits/s speed=0.936x    frame=  122 fps= 30 q=26.0 size=     585kB time=00:00:03.83 bitrate=1249.3kbits/s speed=0.944x    frame=  138 fps= 30 q=27.0 size=     667kB time=00:00:04.37 bitrate=1250.0kbits/s speed=0.956x    frame=  153 fps= 30 q=25.0 size=     736kB time=00:00:04.87 bitrate=1237.3kbits/s speed=0.96x    frame=  167 fps= 30 q=27.0 size=     824kB time=00:00:05.34 bitrate=1263.6kbits/s speed=0.958x    frame=  181 fps= 30 q=25.0 size=     927kB time=00:00:05.95 bitrate=1274.4kbits/s speed=0.98x    frame=  195 fps= 30 q=42.0 size=    1075kB time=00:00:06.47 bitrate=1359.2kbits/s speed=0.984x    frame=  212 fps= 30 q=44.0 size=    1106kB time=00:00:06.95 bitrate=1303.7kbits/s speed=0.981x    [flv @ 0x5f84940] Failed to update header with correct duration.
[flv @ 0x5f84940] Failed to update header with correct filesize.
frame=  223 fps= 29 q=36.0 Lsize=    1178kB time=00:00:07.49 bitrate=1286.8kbits/s speed=0.991x    
video:1051kB audio:118kB subtitle:0kB other streams:0kB global headers:0kB muxing overhead: 0.797175%
[libx264 @ 0x5f85cc0] frame I:4     Avg QP:23.43  size: 49653
[libx264 @ 0x5f85cc0] frame P:67    Avg QP:24.91  size:  9608
[libx264 @ 0x5f85cc0] frame B:152   Avg QP:26.46  size:  1533
[libx264 @ 0x5f85cc0] consecutive B-frames:  4.0% 12.6%  8.1% 75.3%
[libx264 @ 0x5f85cc0] mb I  I16..4: 36.7% 26.2% 37.0%
[libx264 @ 0x5f85cc0] mb P  I16..4:  4.8%  8.4%  0.5%  P16..4: 34.6%  0.0%  0.0%  0.0%  0.0%    skip:51.8%
[libx264 @ 0x5f85cc0] mb B  I16..4:  0.7%  1.1%  0.0%  B16..8:  7.2%  0.0%  0.0%  direct: 4.3%  skip:86.7%  L0:38.5% L1:46.0% BI:15.4%
[libx264 @ 0x5f85cc0] 8x8 transform intra:52.0% inter:26.2%
[libx264 @ 0x5f85cc0] coded y,uvDC,uvAC intra: 32.8% 25.1% 3.0% inter: 5.0% 4.0% 0.0%
[libx264 @ 0x5f85cc0] i16 v,h,dc,p: 53% 25% 12% 11%
[libx264 @ 0x5f85cc0] i8 v,h,dc,ddl,ddr,vr,hd,vl,hu: 16% 24% 21%  6%  6%  6%  8%  4%  9%
[libx264 @ 0x5f85cc0] i4 v,h,dc,ddl,ddr,vr,hd,vl,hu: 19% 20% 14%  8%  8%  8%  8%  6%  9%
[libx264 @ 0x5f85cc0] i8c dc,h,v,p: 59% 22% 14%  5%
[libx264 @ 0x5f85cc0] Weighted P-Frames: Y:14.9% UV:9.0%
[libx264 @ 0x5f85cc0] kb/s:1156.15
Exiting normally, received signal 2.
